<svg width="34" height="28" viewBox="0 0 34 28" fill="none" xmlns="http://www.w3.org/2000/svg">
    <path d="M16.628 7.68711L5.8251 16.5846V26.1875C5.8251 26.4361 5.92387 26.6746 6.09968 26.8504C6.2755 27.0262 6.51396 27.125 6.7626 27.125L13.3286 27.108C13.5764 27.1068 13.8137 27.0075 13.9885 26.8318C14.1633 26.6561 14.2614 26.4183 14.2614 26.1705V20.5625C14.2614 20.3139 14.3602 20.0754 14.536 19.8996C14.7118 19.7238 14.9503 19.625 15.1989 19.625H18.9489C19.1976 19.625 19.436 19.7238 19.6118 19.8996C19.7877 20.0754 19.8864 20.3139 19.8864 20.5625V26.1664C19.886 26.2898 19.91 26.412 19.9569 26.5261C20.0039 26.6402 20.0729 26.7438 20.16 26.8312C20.2471 26.9186 20.3505 26.9879 20.4645 27.0352C20.5784 27.0825 20.7006 27.1068 20.8239 27.1068L27.3876 27.125C27.6362 27.125 27.8747 27.0262 28.0505 26.8504C28.2263 26.6746 28.3251 26.4361 28.3251 26.1875V16.5781L17.5245 7.68711C17.3975 7.58476 17.2394 7.52895 17.0763 7.52895C16.9132 7.52895 16.755 7.58476 16.628 7.68711ZM33.6923 13.7346L28.7938 9.69687V1.58105C28.7938 1.39457 28.7198 1.21573 28.5879 1.08387C28.456 0.952009 28.2772 0.87793 28.0907 0.87793H24.8095C24.623 0.87793 24.4441 0.952009 24.3123 1.08387C24.1804 1.21573 24.1063 1.39457 24.1063 1.58105V5.83555L18.8604 1.51953C18.357 1.10526 17.7253 0.878758 17.0733 0.878758C16.4214 0.878758 15.7897 1.10526 15.2862 1.51953L0.454394 13.7346C0.383195 13.7934 0.324289 13.8657 0.281043 13.9473C0.237796 14.029 0.211055 14.1183 0.202349 14.2103C0.193643 14.3022 0.203141 14.395 0.230302 14.4833C0.257463 14.5716 0.301754 14.6536 0.360644 14.7248L1.85478 16.5412C1.91351 16.6126 1.98575 16.6718 2.06736 16.7152C2.14897 16.7587 2.23835 16.7856 2.33038 16.7945C2.42242 16.8033 2.5153 16.794 2.60371 16.7669C2.69211 16.7398 2.77432 16.6956 2.8456 16.6367L16.628 5.28477C16.755 5.18242 16.9132 5.1266 17.0763 5.1266C17.2394 5.1266 17.3975 5.18242 17.5245 5.28477L31.3075 16.6367C31.3787 16.6956 31.4608 16.7399 31.549 16.7671C31.6373 16.7942 31.7301 16.8037 31.8221 16.795C31.914 16.7863 32.0034 16.7596 32.085 16.7163C32.1666 16.6731 32.2389 16.6142 32.2978 16.543L33.7919 14.7266C33.8507 14.655 33.8948 14.5725 33.9217 14.4838C33.9485 14.3951 33.9576 14.302 33.9483 14.2099C33.939 14.1177 33.9117 14.0282 33.8677 13.9467C33.8238 13.8651 33.7642 13.793 33.6923 13.7346Z" fill="#BDC9E0"/>
</svg>
