<svg width="68" height="68" viewBox="0 0 68 68" fill="none" xmlns="http://www.w3.org/2000/svg">
    <path d="M38.4419 2.46605L4.27133 22.1944C1.9221 23.5508 1.10972 26.5826 2.46605 28.9318L22.1944 63.1022C23.5508 65.4514 26.5826 66.2642 28.9318 64.9074L63.1021 45.1793C65.4519 43.823 66.2641 40.7912 64.9079 38.4419L45.1793 4.27132C43.823 1.9221 40.7911 1.10973 38.4419 2.46605ZM49.5391 21.687L34.5895 30.3182L25.9583 15.3685L40.908 6.73739L49.5391 21.687ZM21.687 17.8346L30.3182 32.7842L15.3686 41.4154L6.73735 26.4658L21.687 17.8346ZM17.8346 45.6867L32.7842 37.0556L41.4154 52.0052L26.4658 60.6363L17.8346 45.6867ZM45.6867 49.5391L37.0555 34.5895L52.0052 25.9583L60.6364 40.908L45.6867 49.5391Z" fill="#6E5FFC"/>
    <path d="M25.9017 30.9108L22.9964 32.5882L17.2313 29.7048L19.9211 34.3637L17.0158 36.041L11.6665 26.7757L14.5717 25.0984L20.3822 28.0602L17.6471 23.3228L20.5523 21.6455L25.9017 30.9108Z" fill="black"/>
    <path d="M26.8606 44.177C27.8289 43.6179 28.7886 43.3257 29.7394 43.3002C30.6989 43.2696 31.5764 43.49 32.372 43.9613C33.1675 44.4326 33.8222 45.1132 34.336 46.0031C34.8447 46.8843 35.1068 47.7915 35.1222 48.7248C35.1376 49.6581 34.8972 50.5415 34.4011 51.3746C33.9087 52.194 33.1783 52.8832 32.2099 53.4423L28.3493 55.6712L23 46.4059L26.8606 44.177ZM30.4522 51.0023C31.1065 50.6245 31.5224 50.146 31.6997 49.5667C31.877 48.9873 31.7743 48.3662 31.3915 47.7031C31.0087 47.04 30.5221 46.6405 29.9317 46.5044C29.3413 46.3683 28.7189 46.4892 28.0646 46.8669L27.371 47.2674L29.7586 51.4027L30.4522 51.0023Z" fill="black"/>
    <path d="M52.5667 39.8222L49.4783 41.6053L49.8287 43.27L46.7795 45.0304L44.8196 33.8082L48.1697 31.874L56.8954 39.19L53.8332 40.958L52.5667 39.8222ZM50.5982 38.0447L48.2722 35.9502L48.9231 39.0118L50.5982 38.0447Z" fill="black"/>
</svg>
