<svg width="30" height="30" viewBox="0 0 30 30" fill="none" xmlns="http://www.w3.org/2000/svg">
<g clip-path="url(#clip0)">
<path d="M29.1439 21.1993L22.5814 18.3868C22.3011 18.2673 21.9895 18.2421 21.6936 18.3151C21.3977 18.388 21.1336 18.555 20.9408 18.7911L18.0346 22.3419C13.4735 20.1914 9.80285 16.5207 7.65234 11.9597L11.2031 9.0534C11.4397 8.86102 11.6071 8.59682 11.68 8.30079C11.753 8.00476 11.7275 7.69303 11.6074 7.41277L8.79492 0.850274C8.66315 0.54817 8.4301 0.301512 8.13595 0.152832C7.8418 0.00415243 7.50499 -0.0372298 7.18359 0.0358212L1.08984 1.44207C0.779982 1.51362 0.503523 1.68809 0.305587 1.937C0.107651 2.18591 -7.13795e-05 2.49456 3.54856e-08 2.81258C3.54856e-08 17.8419 12.1816 30.0001 27.1875 30.0001C27.5056 30.0003 27.8144 29.8926 28.0634 29.6947C28.3125 29.4967 28.487 29.2202 28.5586 28.9102L29.9648 22.8165C30.0374 22.4935 29.9952 22.1554 29.8453 21.8602C29.6955 21.565 29.4475 21.3313 29.1439 21.1993Z" fill="#BDC9E0"/>
</g>
<defs>
<clipPath id="clip0">
<rect width="30" height="30" fill="white"/>
</clipPath>
</defs>
</svg>
